<svg id="visual" viewBox="0 0 900 600" width="900" height="600" xmlns="http://www.w3.org/2000/svg" xmlns:xlink="http://www.w3.org/1999/xlink" version="1.1"><g stroke-width="1" stroke-linejoin="bevel"><path d="M464 304L367 310L412 382Z" fill="#115a84" stroke="#115a84"></path><path d="M367 310L338 374L412 382Z" fill="#116a9b" stroke="#116a9b"></path><path d="M464 304L396 225L367 310Z" fill="#0b2c42" stroke="#0b2c42"></path><path d="M367 310L262 319L338 374Z" fill="#115a84" stroke="#115a84"></path><path d="M474 470L519 428L412 382Z" fill="#115a84" stroke="#115a84"></path><path d="M412 382L519 428L464 304Z" fill="#116a9b" stroke="#116a9b"></path><path d="M380 507L474 470L412 382Z" fill="#104a6d" stroke="#104a6d"></path><path d="M276 204L262 319L367 310Z" fill="#0b2c42" stroke="#0b2c42"></path><path d="M519 428L565 266L464 304Z" fill="#116a9b" stroke="#116a9b"></path><path d="M464 304L498 170L396 225Z" fill="#0e3b57" stroke="#0e3b57"></path><path d="M565 266L498 170L464 304Z" fill="#099de5" stroke="#099de5"></path><path d="M273 469L380 507L338 374Z" fill="#081e2f" stroke="#081e2f"></path><path d="M338 374L380 507L412 382Z" fill="#01afff" stroke="#01afff"></path><path d="M437 131L276 204L396 225Z" fill="#104a6d" stroke="#104a6d"></path><path d="M396 225L276 204L367 310Z" fill="#081e2f" stroke="#081e2f"></path><path d="M498 170L437 131L396 225Z" fill="#0e3b57" stroke="#0e3b57"></path><path d="M262 319L273 469L338 374Z" fill="#107bb3" stroke="#107bb3"></path><path d="M498 170L513 130L437 131Z" fill="#116a9b" stroke="#116a9b"></path><path d="M564 129L513 130L498 170Z" fill="#0e3b57" stroke="#0e3b57"></path><path d="M565 266L582 175L498 170Z" fill="#0e3b57" stroke="#0e3b57"></path><path d="M173 294L190 368L262 319Z" fill="#0e8ccc" stroke="#0e8ccc"></path><path d="M262 319L190 368L273 469Z" fill="#0e3b57" stroke="#0e3b57"></path><path d="M627 518L636 429L519 428Z" fill="#116a9b" stroke="#116a9b"></path><path d="M519 428L636 429L565 266Z" fill="#01afff" stroke="#01afff"></path><path d="M565 266L703 175L582 175Z" fill="#081e2f" stroke="#081e2f"></path><path d="M627 518L519 428L474 470Z" fill="#0e8ccc" stroke="#0e8ccc"></path><path d="M276 204L173 294L262 319Z" fill="#099de5" stroke="#099de5"></path><path d="M582 175L564 129L498 170Z" fill="#01afff" stroke="#01afff"></path><path d="M405 0L301 64L437 131Z" fill="#107bb3" stroke="#107bb3"></path><path d="M133 478L215 488L190 368Z" fill="#081e2f" stroke="#081e2f"></path><path d="M190 368L215 488L273 469Z" fill="#099de5" stroke="#099de5"></path><path d="M331 600L417 600L380 507Z" fill="#01afff" stroke="#01afff"></path><path d="M276 204L199 173L173 294Z" fill="#104a6d" stroke="#104a6d"></path><path d="M200 91L199 173L276 204Z" fill="#0e3b57" stroke="#0e3b57"></path><path d="M331 600L380 507L273 469Z" fill="#116a9b" stroke="#116a9b"></path><path d="M380 507L417 600L474 470Z" fill="#107bb3" stroke="#107bb3"></path><path d="M636 429L688 337L565 266Z" fill="#00101c" stroke="#00101c"></path><path d="M582 175L708 112L564 129Z" fill="#104a6d" stroke="#104a6d"></path><path d="M520 600L627 518L474 470Z" fill="#0b2c42" stroke="#0b2c42"></path><path d="M636 429L705 413L688 337Z" fill="#01afff" stroke="#01afff"></path><path d="M215 488L331 600L273 469Z" fill="#0e3b57" stroke="#0e3b57"></path><path d="M405 0L437 131L495 0Z" fill="#0e3b57" stroke="#0e3b57"></path><path d="M437 131L301 64L276 204Z" fill="#0e3b57" stroke="#0e3b57"></path><path d="M417 600L520 600L474 470Z" fill="#0e3b57" stroke="#0e3b57"></path><path d="M686 513L705 413L636 429Z" fill="#01afff" stroke="#01afff"></path><path d="M173 294L118 361L190 368Z" fill="#081e2f" stroke="#081e2f"></path><path d="M74 322L118 361L173 294Z" fill="#0b2c42" stroke="#0b2c42"></path><path d="M123 69L121 238L199 173Z" fill="#116a9b" stroke="#116a9b"></path><path d="M199 173L121 238L173 294Z" fill="#0e8ccc" stroke="#0e8ccc"></path><path d="M118 361L133 478L190 368Z" fill="#081e2f" stroke="#081e2f"></path><path d="M215 488L181 600L331 600Z" fill="#099de5" stroke="#099de5"></path><path d="M301 64L200 91L276 204Z" fill="#115a84" stroke="#115a84"></path><path d="M688 337L703 175L565 266Z" fill="#081e2f" stroke="#081e2f"></path><path d="M768 237L703 175L688 337Z" fill="#081e2f" stroke="#081e2f"></path><path d="M627 518L686 513L636 429Z" fill="#107bb3" stroke="#107bb3"></path><path d="M631 600L686 513L627 518Z" fill="#00101c" stroke="#00101c"></path><path d="M495 0L513 130L564 129Z" fill="#099de5" stroke="#099de5"></path><path d="M495 0L437 131L513 130Z" fill="#104a6d" stroke="#104a6d"></path><path d="M301 64L267 0L200 91Z" fill="#115a84" stroke="#115a84"></path><path d="M637 0L495 0L564 129Z" fill="#0e8ccc" stroke="#0e8ccc"></path><path d="M0 299L74 322L121 238Z" fill="#0e3b57" stroke="#0e3b57"></path><path d="M121 238L74 322L173 294Z" fill="#104a6d" stroke="#104a6d"></path><path d="M118 361L0 417L133 478Z" fill="#107bb3" stroke="#107bb3"></path><path d="M772 410L761 328L705 413Z" fill="#099de5" stroke="#099de5"></path><path d="M705 413L761 328L688 337Z" fill="#0e3b57" stroke="#0e3b57"></path><path d="M520 600L631 600L627 518Z" fill="#0e3b57" stroke="#0e3b57"></path><path d="M133 478L181 600L215 488Z" fill="#099de5" stroke="#099de5"></path><path d="M405 0L267 0L301 64Z" fill="#099de5" stroke="#099de5"></path><path d="M761 328L768 237L688 337Z" fill="#115a84" stroke="#115a84"></path><path d="M790 63L708 112L703 175Z" fill="#0e3b57" stroke="#0e3b57"></path><path d="M703 175L708 112L582 175Z" fill="#00101c" stroke="#00101c"></path><path d="M761 328L900 331L768 237Z" fill="#0e3b57" stroke="#0e3b57"></path><path d="M686 513L772 410L705 413Z" fill="#0e8ccc" stroke="#0e8ccc"></path><path d="M803 519L772 410L686 513Z" fill="#115a84" stroke="#115a84"></path><path d="M267 0L208 0L200 91Z" fill="#099de5" stroke="#099de5"></path><path d="M200 91L123 69L199 173Z" fill="#115a84" stroke="#115a84"></path><path d="M208 0L123 69L200 91Z" fill="#115a84" stroke="#115a84"></path><path d="M708 112L637 0L564 129Z" fill="#081e2f" stroke="#081e2f"></path><path d="M631 600L716 600L686 513Z" fill="#115a84" stroke="#115a84"></path><path d="M0 175L0 299L121 238Z" fill="#0b2c42" stroke="#0b2c42"></path><path d="M74 322L0 417L118 361Z" fill="#107bb3" stroke="#107bb3"></path><path d="M133 478L93 600L181 600Z" fill="#107bb3" stroke="#107bb3"></path><path d="M0 487L93 600L133 478Z" fill="#116a9b" stroke="#116a9b"></path><path d="M0 299L0 417L74 322Z" fill="#00101c" stroke="#00101c"></path><path d="M716 600L803 519L686 513Z" fill="#01afff" stroke="#01afff"></path><path d="M900 363L900 331L761 328Z" fill="#081e2f" stroke="#081e2f"></path><path d="M123 69L0 175L121 238Z" fill="#00101c" stroke="#00101c"></path><path d="M0 417L0 487L133 478Z" fill="#107bb3" stroke="#107bb3"></path><path d="M790 63L731 0L708 112Z" fill="#115a84" stroke="#115a84"></path><path d="M708 112L731 0L637 0Z" fill="#116a9b" stroke="#116a9b"></path><path d="M768 237L790 63L703 175Z" fill="#00101c" stroke="#00101c"></path><path d="M900 219L790 63L768 237Z" fill="#00101c" stroke="#00101c"></path><path d="M208 0L84 0L123 69Z" fill="#104a6d" stroke="#104a6d"></path><path d="M123 69L0 66L0 175Z" fill="#081e2f" stroke="#081e2f"></path><path d="M716 600L803 600L803 519Z" fill="#01afff" stroke="#01afff"></path><path d="M900 363L772 410L900 488Z" fill="#0e3b57" stroke="#0e3b57"></path><path d="M900 363L761 328L772 410Z" fill="#116a9b" stroke="#116a9b"></path><path d="M900 488L772 410L803 519Z" fill="#116a9b" stroke="#116a9b"></path><path d="M84 0L0 66L123 69Z" fill="#0e3b57" stroke="#0e3b57"></path><path d="M900 331L900 219L768 237Z" fill="#0e3b57" stroke="#0e3b57"></path><path d="M0 487L0 600L93 600Z" fill="#01afff" stroke="#01afff"></path><path d="M900 600L900 488L803 519Z" fill="#0e3b57" stroke="#0e3b57"></path><path d="M900 87L812 0L790 63Z" fill="#107bb3" stroke="#107bb3"></path><path d="M790 63L812 0L731 0Z" fill="#01afff" stroke="#01afff"></path><path d="M84 0L0 0L0 66Z" fill="#115a84" stroke="#115a84"></path><path d="M900 219L900 87L790 63Z" fill="#115a84" stroke="#115a84"></path><path d="M803 600L900 600L803 519Z" fill="#00101c" stroke="#00101c"></path><path d="M900 87L900 0L812 0Z" fill="#081e2f" stroke="#081e2f"></path></g></svg>